<svg xmlns="http://www.w3.org/2000/svg" version="1.1" xmlns:xlink="http://www.w3.org/1999/xlink" xmlns:svgjs="http://svgjs.dev/svgjs" width="128" height="128" viewBox="0 0 128 128"><g transform="matrix(0.8046875,0,0,0.8046875,12.41184074821259,12.814873242367177)"><svg viewBox="0 0 98 98" data-background-color="#ffffff" preserveAspectRatio="xMidYMid meet" height="127" width="128" xmlns="http://www.w3.org/2000/svg" xmlns:xlink="http://www.w3.org/1999/xlink"><g id="tight-bounds" transform="matrix(1,0,0,1,0.08387967645792571,0.08387967645792571)"><svg viewBox="0 0 97.83224064708415 97.83224064708415" height="97.83224064708415" width="97.83224064708415"><g><svg></svg></g><g><svg viewBox="0 0 97.83224064708415 97.83224064708415" height="97.83224064708415" width="97.83224064708415"><g><path d="M0 48.916c0-27.016 21.9-48.916 48.916-48.916 27.016 0 48.916 21.9 48.916 48.916 0 27.016-21.9 48.916-48.916 48.916-27.016 0-48.916-21.9-48.916-48.916zM48.916 93.359c24.545 0 44.443-19.898 44.443-44.443 0-24.545-19.898-44.443-44.443-44.443-24.545 0-44.443 19.898-44.443 44.443 0 24.545 19.898 44.443 44.443 44.443z" data-fill-palette-color="tertiary" fill="#c56e33" stroke="transparent"></path><ellipse rx="46.95947551060039" ry="46.95947551060039" cx="48.916120323542074" cy="48.916120323542074" fill="#c56e33" stroke="transparent" stroke-width="0" fill-opacity="1" data-fill-palette-color="tertiary"></ellipse></g><g transform="matrix(1,0,0,1,23.47539391502934,24.113765045756058)"><svg viewBox="0 0 50.88145281702547 49.604710555572034" height="49.604710555572034" width="50.88145281702547"><g><svg viewBox="0 0 50.88145281702547 49.604710555572034" height="49.604710555572034" width="50.88145281702547"><g><svg viewBox="0 0 50.88145281702547 49.604710555572034" height="49.604710555572034" width="50.88145281702547"><g id="textblocktransform"><svg viewBox="0 0 50.88145281702547 49.604710555572034" height="49.604710555572034" width="50.88145281702547" id="textblock"><g><svg viewBox="0 0 50.88145281702547 49.604710555572034" height="49.604710555572034" width="50.88145281702547"><g><svg viewBox="0 0 50.88145281702547 49.604710555572034" height="49.604710555572034" width="50.88145281702547"><g><svg xmlns="http://www.w3.org/2000/svg" data-name="Layer 1" viewBox="13.91 14.64 62.17 60.61" x="0" y="0" height="49.604710555572034" width="50.88145281702547" class="icon-icon-0" data-fill-palette-color="quaternary" id="icon-0"><path d="M69.93 26.65L45 14.64l-24.93 12-6.16 27L31.17 75.25H58.83L76.08 53.62ZM57.87 73.25H32.13l2.08-22.7L16.08 53.12 21.81 28l23 7 23.43-7 5.73 25.09L55.4 50.54Z" fill="#d7bcbc" data-fill-palette-color="quaternary"></path><polygon points="44.76 35.08 34.21 50.54 55.4 50.54 44.76 35.08" fill="#d7bcbc" data-fill-palette-color="quaternary"></polygon></svg></g></svg></g></svg></g></svg></g></svg></g><g></g></svg></g></svg></g></svg></g><defs></defs></svg><rect width="97.83224064708415" height="97.83224064708415" fill="none" stroke="none" visibility="hidden"></rect></g></svg></g></svg>