<svg xmlns="http://www.w3.org/2000/svg" version="1.1" xmlns:xlink="http://www.w3.org/1999/xlink" xmlns:svgjs="http://svgjs.dev/svgjs" width="2000" height="2000" viewBox="0 0 2000 2000"><g transform="matrix(1,0,0,1,-0.28443113772425477,-0.28443113772459583)"><svg viewBox="0 0 334 334" data-background-color="#ffffff" preserveAspectRatio="xMidYMid meet" height="2000" width="2000" xmlns="http://www.w3.org/2000/svg" xmlns:xlink="http://www.w3.org/1999/xlink"><g id="tight-bounds" transform="matrix(1,0,0,1,0.04749999999998522,0.04750000000001364)"><svg viewBox="0 0 333.90454557049503 333.90454557049503" height="333.90454557049503" width="333.90454557049503"><g><svg></svg></g><g><svg viewBox="0 0 333.90454557049503 333.90454557049503" height="333.90454557049503" width="333.90454557049503"><g><path d="M0 166.952c0-92.205 74.747-166.952 166.952-166.952 92.205 0 166.952 74.747 166.953 166.952 0 92.205-74.747 166.952-166.953 166.953-92.205 0-166.952-74.747-166.952-166.953zM166.952 324.124c86.803 0 157.171-70.368 157.172-157.172 0-86.803-70.368-157.171-157.172-157.171-86.803 0-157.171 70.368-157.171 157.171 0 86.803 70.368 157.171 157.171 157.172z" data-fill-palette-color="tertiary" fill="#c56e33" stroke="transparent"></path><ellipse rx="160.27418187383762" ry="160.27418187383762" cx="166.95227278524752" cy="166.95227278524752" fill="#c56e33" stroke="transparent" stroke-width="0" fill-opacity="1" data-fill-palette-color="tertiary"></ellipse></g><g transform="matrix(1,0,0,1,119.23689549302406,71.17305217166896)"><svg viewBox="0 0 95.43075458444692 191.55844122715712" height="191.55844122715712" width="95.43075458444692"><g><svg viewBox="0 0 95.43075458444692 191.55844122715712" height="191.55844122715712" width="95.43075458444692"><g><svg viewBox="0 0 168.55002510210753 338.33097325859364" height="191.55844122715712" width="95.43075458444692"><g transform="matrix(1,0,0,1,0,146.77253203143647)"><svg viewBox="0 0 168.55002510210753 191.55844122715715" height="191.55844122715715" width="168.55002510210753"><g id="textblocktransform"><svg viewBox="0 0 168.55002510210753 191.55844122715715" height="191.55844122715715" width="168.55002510210753" id="textblock"><g><svg viewBox="0 0 168.55002510210753 191.55844122715715" height="191.55844122715715" width="168.55002510210753"><g transform="matrix(1,0,0,1,0,0)"><svg width="168.55002510210753" viewBox="0 -35.79999923706055 31.5 35.79999923706055" height="191.55844122715715" data-palette-color="#d7bcbc"><path d="M25.25-2.15L31.5-2.15 31.5 0 0 0 0-2.15 6.4-2.15Q4-3.4 2-5.25L2-5.25 5.7-9.7Q11-5.1 16.7-5.1L16.7-5.1Q19.55-5.1 21.23-6.33 22.9-7.55 22.9-9.58 22.9-11.6 21.33-12.73 19.75-13.85 15.9-14.78 12.05-15.7 10.05-16.48 8.05-17.25 6.5-18.5L6.5-18.5Q3.4-20.85 3.4-25.7 3.4-30.55 6.93-33.18 10.45-35.8 15.65-35.8L15.65-35.8Q19-35.8 22.3-34.7 25.6-33.6 28-31.6L28-31.6 24.85-27.15Q23.3-28.55 20.65-29.45 18-30.35 15.43-30.35 12.85-30.35 11.2-29.3 9.55-28.25 9.55-26.13 9.55-24 11.2-22.88 12.85-21.75 18.23-20.45 23.6-19.15 26.33-16.8 29.05-14.45 29.05-10.2L29.05-10.2Q29.05-5.05 25.25-2.15L25.25-2.15Z" opacity="1" transform="matrix(1,0,0,1,0,0)" fill="#d7bcbc" class="wordmark-text-0" data-fill-palette-color="quaternary" id="text-0"></path></svg></g></svg></g></svg></g></svg></g><g transform="matrix(1,0,0,1,32.19305479450254,0)"><svg viewBox="0 0 104.16391551310245 101.55018146029411" height="101.55018146029411" width="104.16391551310245"><g><svg xmlns="http://www.w3.org/2000/svg" data-name="Layer 1" viewBox="13.90999984741211 14.640000343322754 62.17000198364258 60.61000061035156" x="0" y="0" height="101.55018146029411" width="104.16391551310245" class="icon-icon-0" data-fill-palette-color="quaternary" id="icon-0"><path d="M69.93 26.65L45 14.64l-24.93 12-6.16 27L31.17 75.25H58.83L76.08 53.62ZM57.87 73.25H32.13l2.08-22.7L16.08 53.12 21.81 28l23 7 23.43-7 5.73 25.09L55.4 50.54Z" fill="#d7bcbc" data-fill-palette-color="quaternary"></path><polygon points="44.76 35.08 34.21 50.54 55.4 50.54 44.76 35.08" fill="#d7bcbc" data-fill-palette-color="quaternary"></polygon></svg></g></svg></g><g></g></svg></g></svg></g></svg></g></svg></g><defs></defs></svg><rect width="333.90454557049503" height="333.90454557049503" fill="none" stroke="none" visibility="hidden"></rect></g></svg></g></svg>